<svg xmlns="http://www.w3.org/2000/svg" width="82" height="82" viewBox="0 0 82 82">
  <g fill="none" fill-rule="evenodd">
    <path fill="#ECB84C" d="M35.9127117,41.7389958 L43.0081739,41.7389958 L43.0081739,46.5467629 L35.9127117,46.3771291 L35.9127117,41.7389958 Z M33,67.328116 L40.3617842,60 L48.0194771,67.328116 L40.9381674,79.405968 L33,67.328116 Z M19.5071826,36.5162297 L18.922763,32.8949709 L18.922763,23.3075174 L21.3171207,15.8759535 L25.2366374,9.60562548 L34.4173127,4.52798345 L41.5812049,3.54819069 L51.8780145,6.03897249 L59.4982793,12.3061901 L63.1032945,23.3075174 L63.6552271,35.0523438 L60.4189734,37.6304631 L55.8870431,38.4132605 L56.4980743,21.2197121 L51.8780145,13.2344875 L44.2829791,9.60562548 L35.9127117,10.1903907 L28.3854528,14.5523603 L25.2366374,22.475644 L26.4417652,37.6304631 L19.5071826,36.5162297 Z"/>
    <path fill="#FFF" fill-rule="nonzero" d="M62.0712696,58.1120645 L54.6317913,55.668002 L51.9610609,50.4023125 C54.367113,47.9881836 56.0376696,44.7939297 56.6009913,41.4621973 L56.9340696,39.4941406 L59.7826087,39.4941406 C62.3717913,39.4941406 64.4782609,37.4176133 64.4782609,34.8652344 L64.4782609,25.1445312 C64.4782609,12.3826367 53.945913,2 41,2 C28.0209043,2 17.5217391,12.3528574 17.5217391,25.1445312 L17.5217391,34.8652344 C17.5217391,36.8766484 18.8304174,38.5918125 20.6521739,39.22875 L20.6521739,41.0371094 C20.6521739,43.5894883 22.7586435,45.6660156 25.3478261,45.6660156 L26.7224,45.6660156 C27.4009217,47.1190293 28.2791652,48.4648066 29.3478957,49.6737227 C29.5695304,49.924918 29.800713,50.1683984 30.0375304,50.4052441 L27.3682087,55.668002 L19.9285739,58.1122187 C11.2784,60.9556016 5,69.9324395 5,79.4570312 C5,80.3092129 5.70074783,81 6.56521739,81 L75.4347826,81 C76.2990957,81 77,80.3092129 77,79.4570312 C77,69.9324395 70.7217565,60.9556016 62.0712696,58.1120645 Z M61.3478261,34.8652344 C61.3478261,35.7160273 60.6456696,36.4082031 59.7826087,36.4082031 L57.3937739,36.4082031 C57.7916522,33.3700977 58.0568,30.1371152 58.1633913,26.9528906 C58.1665217,26.8630898 58.1690261,26.7757578 58.1718435,26.6875 L61.3478261,26.6875 L61.3478261,34.8652344 Z M22.2173913,36.4082031 C21.3543304,36.4082031 20.6521739,35.7160273 20.6521739,34.8652344 L20.6521739,26.6875 L23.8292522,26.6875 C23.8344174,26.8484316 23.8398957,27.0101348 23.846,27.172918 C23.8461565,27.1784727 23.8464696,27.183873 23.8466261,27.1894277 C23.8466261,27.1898906 23.8466261,27.1903535 23.8466261,27.1908164 C23.9561913,30.2878633 24.2178957,33.4369082 24.6066957,36.4080488 L22.2173913,36.4080488 L22.2173913,36.4082031 Z M25.3478261,42.5800781 C24.4847652,42.5800781 23.7826087,41.8879023 23.7826087,41.0371094 L23.7826087,39.4941406 L25.0657739,39.4941406 L25.3988522,41.4628145 C25.4624,41.8369844 25.5405043,42.2097656 25.6308174,42.5800781 L25.3478261,42.5800781 Z M23.7852696,23.6015625 L20.7116522,23.6015625 C21.5044348,13.2604316 30.2590087,5.0859375 41,5.0859375 C51.6932522,5.0859375 60.4863304,13.2593516 61.2881913,23.6015625 L58.214887,23.6015625 C58.1021913,15.080209 51.0629391,8.171875 42.4010261,8.171875 L39.599287,8.171875 C30.9375304,8.171875 23.8978087,15.080209 23.7852696,23.6015625 Z M39.5991304,11.2578125 L42.4008696,11.2578125 C49.4144522,11.2578125 55.0910261,16.9129473 55.0869565,23.8191211 C55.0869565,24.3046934 55.0830435,24.7274668 55.0747478,25.1121289 C55.0747478,25.1170664 55.0745913,25.1221582 55.0745913,25.12725 L53.1168174,24.8515215 C47.7982087,24.102873 42.7763652,21.6276426 38.9763304,17.881623 C38.6826957,17.5923164 38.2846609,17.4296875 37.8695652,17.4296875 C33.6660174,17.4296875 29.6421565,19.3176641 26.9822261,22.5072891 C27.6377391,16.2244746 33.025687,11.2578125 39.5991304,11.2578125 Z M28.8758261,42.5800781 C28.0922783,40.0105723 27.1957217,32.4500254 26.9975652,27.6051035 L29.1041913,24.8360918 C31.0389565,22.2938965 34.0490261,20.7143594 37.2509913,20.5330605 C41.464087,24.4855293 46.914487,27.0956152 52.6741739,27.906291 L54.978487,28.2309316 C54.8244696,31.4534219 54.5097043,34.6871758 54.0587652,37.661248 C54.0586087,37.6621738 54.0584522,37.6632539 54.0582957,37.664334 C53.9149217,38.6205117 53.801913,39.2358477 53.513287,40.9545605 C52.6843478,45.8558008 48.9744696,50.2879785 44.0770609,51.495043 C42.0615304,51.9911074 39.9381565,51.9909531 37.9237217,51.495043 C34.8657565,50.741457 32.0618261,48.6556719 30.2522783,45.6660156 L33.4431304,45.6660156 C34.0892522,47.461877 35.8289913,48.7519531 37.8695652,48.7519531 L41,48.7519531 C43.5943478,48.7519531 45.6956522,46.6806719 45.6956522,44.1230469 C45.6956522,41.570668 43.5891826,39.4941406 41,39.4941406 L37.8695652,39.4941406 C35.7836,39.4941406 34.0695304,40.8223281 33.4404696,42.5800781 L28.8758261,42.5800781 Z M37.7379304,54.6177031 C38.811513,54.8406621 39.9060696,54.9546875 41,54.9546875 C41.8563304,54.9546875 42.7128174,54.8840195 43.5596,54.7470039 L40.7938609,57.6303496 L37.7379304,54.6177031 Z M38.642,59.8735176 L33.6774435,65.0489434 C32.3106957,62.4700254 31.136313,59.7860312 30.1730783,57.0383125 L32.0374087,53.3626523 L38.642,59.8735176 Z M49.697287,52.8398945 L51.8266087,57.0381582 C50.8618087,59.7905059 49.687113,62.4754258 48.3217739,65.0512578 L43.0081739,59.8131875 L49.697287,52.8398945 Z M36.3043478,44.1230469 C36.3043478,43.2711738 37.0052522,42.5800781 37.8695652,42.5800781 L41,42.5800781 C41.8630609,42.5800781 42.5652174,43.2722539 42.5652174,44.1230469 C42.5652174,44.9750742 41.8641565,45.6660156 41,45.6660156 L37.8695652,45.6660156 C37.0065043,45.6660156 36.3043478,44.9738398 36.3043478,44.1230469 Z M8.19304348,77.9140625 C8.81333913,70.2703496 13.9737043,63.3226699 20.9185739,61.0396934 L27.5072,58.8752168 C28.7142957,62.1655977 30.2097043,65.363709 31.9622783,68.4015059 C31.9652522,68.406752 31.9680696,68.411998 31.9710435,68.4170898 C31.9710435,68.4172441 31.9712,68.4172441 31.9712,68.4173984 C33.2517043,70.6375762 34.6929565,72.8071445 36.255513,74.8668535 L38.1810435,77.9140625 L8.19304348,77.9140625 Z M41,76.5386602 L38.8772522,73.1791543 C38.8534609,73.1415059 38.8281043,73.1049375 38.8011826,73.0694492 C37.5336696,71.4027344 36.3513043,69.6596426 35.2744348,67.8755078 L40.8564696,62.0563555 L46.7382435,67.8545234 C45.6541739,69.6516191 44.4677391,71.4019629 43.1991304,73.0691406 C43.1224348,73.1698965 43.2312174,73.011125 41,76.5386602 Z M43.8189565,77.9140625 L45.7443304,74.8670078 C47.3137739,72.7994297 48.7653565,70.6124258 50.0586957,68.3661719 C50.0665217,68.3525937 50.0738783,68.338707 50.0817043,68.3251289 C50.0826435,68.3234316 50.0835826,68.3218887 50.0845217,68.3201914 C51.8148696,65.3114023 53.2946261,62.1410645 54.4928,58.8752168 L61.0812696,61.0396934 C68.0262957,63.3226699 73.1866609,70.2703496 73.8069565,77.9140625 L43.8189565,77.9140625 Z"/>
  </g>
</svg>
