<svg id="Layer_1" data-name="Layer 1" xmlns="http://www.w3.org/2000/svg" viewBox="0 0 82 82"><defs><style>.cls-1{fill:#fff;stroke:#fff;}.cls-1,.cls-2{stroke-width:0.3px;}.cls-2{fill:#ecb84c;stroke:#ecb84c;fill-rule:evenodd;}</style></defs><title>discussion-group-light</title><path class="cls-1" d="M56.212,79.228h8.76V70.12c0-5.563-3.911-7.459-9.336-10.241h-.253v-.127l-5.8-2.908A8.782,8.782,0,0,1,41,63.8a8.913,8.913,0,0,1-8.579-6.955l-5.8,2.908v.127h-.253c-5.425,2.782-9.336,4.678-9.336,10.241v9.108H25.2V74.585h2.371v4.643H53.841V74.585h2.371ZM17.028,81.5H14.505V72.4a33.949,33.949,0,0,1-5.173-.758A28.612,28.612,0,0,1,2.14,69.109L.5,68.35V64.431a6.373,6.373,0,0,1,1.009-3.414,7.293,7.293,0,0,1,2.524-2.276l7.317-3.667a2.08,2.08,0,0,0,.505-1.391V52.8a10.053,10.053,0,0,1-2.523-6.7V43.568a7.084,7.084,0,0,1,2.271-5.31,7.056,7.056,0,0,1,5.3-2.276,7.056,7.056,0,0,1,5.3,2.276,7.084,7.084,0,0,1,2.271,5.31V46.1a9.819,9.819,0,0,1-2.523,6.7v.885a2.086,2.086,0,0,0,.5,1.391l3.911,1.9L32.8,53.81a1.8,1.8,0,0,0,.505-1.391V47.994a13.466,13.466,0,0,1-3.785-8.6c-.126-.127-.379-.253-.5-.38a2.5,2.5,0,0,1-.757-1.77V30.924a12.617,12.617,0,1,1,25.234,0v6.322a3.043,3.043,0,0,1-.757,1.9,1.761,1.761,0,0,1-.505.379,13.758,13.758,0,0,1-3.785,8.6v4.3a1.8,1.8,0,0,0,.5,1.391l6.434,3.161,3.911-1.9a2.08,2.08,0,0,0,.505-1.391V52.8a10.053,10.053,0,0,1-2.523-6.7V43.568a7.491,7.491,0,0,1,12.869-5.31,7.084,7.084,0,0,1,2.271,5.31V46.1a9.819,9.819,0,0,1-2.523,6.7v.885a2.086,2.086,0,0,0,.5,1.391l7.318,3.667a7.8,7.8,0,0,1,2.9,2.529,7.528,7.528,0,0,1,.883,3.287v3.92l-1.64.758a43.869,43.869,0,0,1-7.192,2.529,33.949,33.949,0,0,1-5.173.759V81.5H17.028ZM11.855,43.568V46.1c0,2.655,1.514,6.322,5.047,6.322s5.047-3.667,5.047-6.322V43.568a5,5,0,0,0-1.514-3.54A4.769,4.769,0,0,0,16.9,38.511a4.976,4.976,0,0,0-3.533,1.517A4.6,4.6,0,0,0,11.855,43.568Zm2.524,26.426c0-6.322,4.289-9.1,9.21-11.506L21.444,57.35a4.243,4.243,0,0,1-1.893-2.908,6.2,6.2,0,0,1-2.649.506,5.848,5.848,0,0,1-2.65-.506A3.965,3.965,0,0,1,12.36,57.35L5.042,61.017a3.216,3.216,0,0,0-1.514,1.391,5.314,5.314,0,0,0-.5,2.023v2.4h.253a29,29,0,0,0,6.56,2.4A26.1,26.1,0,0,0,14.379,69.994Zm19.3-46.277a10.143,10.143,0,0,0-2.9,6.575A5.741,5.741,0,0,1,33.3,29.66h8.327l2.145-2.149a1.149,1.149,0,0,1,1.388-.253,1.106,1.106,0,0,1,.757,1.138,1.294,1.294,0,0,0,1.261,1.264h1.262a5.736,5.736,0,0,1,2.523.632,9.865,9.865,0,0,0-2.9-6.575,10.429,10.429,0,0,0-7.191-2.908A9.995,9.995,0,0,0,33.682,23.717Zm-1.64,14.794c0,3.919,2.4,10.115,8.832,10.115s8.832-6.2,8.832-10.115a1.193,1.193,0,0,1,1.261-1.265V34.718a2.589,2.589,0,0,0-2.523-2.529H47.182a3.629,3.629,0,0,1-2.649-1.138l-.379-.379-1.135,1.137a1.146,1.146,0,0,1-.883.38H33.3a2.589,2.589,0,0,0-2.524,2.529v2.528A1.194,1.194,0,0,1,32.042,38.511ZM40.874,61.27a6.411,6.411,0,0,0,6.308-5.69,4.5,4.5,0,0,1-1.261-3.161V49.89a10.7,10.7,0,0,1-10.094,0v2.529a4.5,4.5,0,0,1-1.262,3.161A6.412,6.412,0,0,0,40.874,61.27ZM59.8,43.568V46.1c0,2.655,1.514,6.322,5.047,6.322s5.047-3.667,5.047-6.322V43.568a5,5,0,0,0-1.514-3.54,4.77,4.77,0,0,0-3.533-1.517,4.974,4.974,0,0,0-3.533,1.517A4.6,4.6,0,0,0,59.8,43.568ZM78.724,66.833v-2.4a3.719,3.719,0,0,0-.5-2.023,3.221,3.221,0,0,0-1.514-1.391L69.388,57.35A4.243,4.243,0,0,1,67.5,54.442a6.2,6.2,0,0,1-2.649.506,5.845,5.845,0,0,1-2.65-.506A3.965,3.965,0,0,1,60.3,57.35l-2.145,1.138c4.92,2.529,9.21,5.311,9.21,11.632a28.369,28.369,0,0,0,4.542-.758,31.537,31.537,0,0,0,6.561-2.4ZM51.41,13.934v3.853H48.9V11.366H81.5V31.912H77.739v3.853a1.234,1.234,0,0,1-.753,1.155.736.736,0,0,1-.5.129,1.13,1.13,0,0,1-.878-.385l-4.639-4.752H56.425V29.344H71.47a1.126,1.126,0,0,1,.878.385l2.883,2.954V29.344h3.761V13.934ZM4.2,31.844V28.083H.5V.5H40.012V15.545H37.543V3.008H2.97V25.575h3.7v3.26l2.84-2.884a1.112,1.112,0,0,1,.864-.376H25.2v2.508H10.872L6.3,32.721a1.113,1.113,0,0,1-.864.377.732.732,0,0,1-.494-.126A1.1,1.1,0,0,1,4.2,31.844Z"/><path class="cls-2" d="M58.78,21.244h1.976V23.22H58.78Zm5.927,0h1.976V23.22H64.707Zm4.939,0h1.976V23.22H69.646ZM7.415,8.4H33.1v1.976H7.415Zm0,4.939H33.1v1.976H7.415Zm0,4.939H24.207v1.976H7.415Z"/></svg>